<?xml version="1.0" encoding="UTF-8" standalone="no"?>
<!DOCTYPE svg PUBLIC "-//W3C//DTD SVG 1.1//EN" "http://www.w3.org/Graphics/SVG/1.1/DTD/svg11.dtd">
<svg width="100%" height="100%" viewBox="0 0 2134 2134" version="1.1" xmlns="http://www.w3.org/2000/svg" xmlns:xlink="http://www.w3.org/1999/xlink" xml:space="preserve" xmlns:serif="http://www.serif.com/" style="fill-rule:evenodd;clip-rule:evenodd;stroke-linejoin:round;stroke-miterlimit:2;">
    <g transform="matrix(4.16667,0,0,4.16667,0,0)">
        <path d="M356.952,59.68L464,312L451.712,318.144C449.27,319.362 446.577,319.998 443.848,320C436.701,319.999 430.234,315.645 427.544,309.024L331.04,71.48L356.952,59.68Z" style="fill:rgb(97,48,0);fill-rule:nonzero;"/>
        <path d="M64,48L64,16L320,16L320,48" style="fill:rgb(123,60,0);fill-rule:nonzero;"/>
        <path d="M56,80L80,112L87.336,464C87.695,481.667 102.329,496.004 120,496L144,496C153.987,481.019 170.844,471.999 188.848,472L230.448,472L279.368,400.56L304,80L56,80Z" style="fill:rgb(123,60,0);fill-rule:nonzero;"/>
        <path d="M188.848,472L230.448,472L245.048,450.68L280,80L56,80L80,112L87.336,464C87.695,481.667 102.329,496.004 120,496L144,496C153.988,481.02 170.844,472 188.848,472Z" style="fill:rgb(97,48,0);fill-rule:nonzero;"/>
        <path d="M188.848,472L230.448,472L245.048,450.68L279.28,87.856L112,128L112,494.896C114.611,495.594 117.298,495.965 120,496L144,496C153.988,481.02 170.844,472 188.848,472Z" style="fill:rgb(139,69,19);fill-rule:nonzero;"/>
        <path d="M320,65.888L320,80L48,80L48,48L312,48" style="fill:rgb(139,69,19);fill-rule:nonzero;"/>
        <circle cx="336" cy="48" r="24" style="fill:rgb(76,76,76);"/>
        <path d="M422.544,296.728L392,312L312,112L341.504,97.248" style="fill:rgb(139,69,19);fill-rule:nonzero;"/>
        <rect x="144" y="80" width="16" height="176" style="fill:rgb(19,120,59);fill-rule:nonzero;"/>
        <rect x="224" y="80" width="16" height="176" style="fill:rgb(19,120,59);fill-rule:nonzero;"/>
        <path d="M296,64L48,64L48,80L295.16,80L296,64Z" style="fill:rgb(97,48,0);fill-rule:nonzero;"/>
        <circle cx="272" cy="448" r="48" style="fill:rgb(56,56,56);"/>
        <path d="M272,400C267.592,400.012 263.207,400.631 258.968,401.84C246.992,410.892 239.939,425.064 239.939,440.076C239.939,466.368 261.574,488.004 287.867,488.004C292.319,488.004 296.75,487.383 301.032,486.16C312.969,477.098 319.993,462.947 319.993,447.96C319.993,421.65 298.343,400 272.033,400C272.022,400 272.011,400 272,400Z" style="fill:rgb(76,76,76);fill-rule:nonzero;"/>
        <path d="M272,480L272,464C280.777,464 288,456.777 288,448L304,448C304,465.555 289.555,480 272,480Z" style="fill:rgb(128,128,128);fill-rule:nonzero;"/>
        <path d="M272,480C289.555,480 304,465.555 304,448L288,448C288,456.777 280.777,464 272,464L272,480Z" style="fill-rule:nonzero;"/>
        <path d="M365.688,59.784C367.275,55.946 368.092,51.832 368.092,47.679C368.092,30.3 353.791,15.999 336.412,15.999C333.57,15.999 330.74,16.381 328,17.136L328,16C328,11.611 324.389,8 320,8L64,8C59.611,8 56,11.611 56,16L56,40L48,40C43.611,40 40,43.611 40,48L40,80C40,84.389 43.611,88 48,88L52,88L72.056,114.744L79.336,464.176C79.903,486.12 98.049,503.891 120,504L144,504C146.672,504 149.173,502.662 150.656,500.44C159.146,487.67 173.506,479.983 188.84,480L226.112,480C236.568,495.06 253.779,504.064 272.113,504.064C302.834,504.064 328.113,478.785 328.113,448.064C328.113,423.268 311.645,401.287 287.848,394.32L308.568,124.96L384.568,314.968C385.399,317.048 387.066,318.686 389.16,319.48C390.067,319.826 391.03,320.002 392,320C393.238,320.014 394.462,319.74 395.576,319.2L418.4,307.752L420.144,312.032C424.053,321.672 433.466,328.012 443.868,328.012C447.852,328.012 451.782,327.082 455.344,325.296L467.624,319.16C471.387,317.283 473.061,312.742 471.416,308.872L365.688,59.784ZM352,48C352,56.777 344.777,64 336,64C327.223,64 320,56.777 320,48C320,39.223 327.223,32 336,32C344.777,32 352,39.223 352,48ZM72,24L312,24L312,27.056C308.735,30.777 306.384,35.21 305.136,40L72,40L72,24ZM56,56L305.136,56C306.384,60.79 308.735,65.223 312,68.944L312,72L56,72L56,56ZM188.84,464C169.703,463.979 151.604,472.855 139.904,488L120,488C106.691,487.927 95.692,477.153 95.344,463.848L88.008,111.848C87.972,110.175 87.413,108.554 86.408,107.216L72,88L144,88L144,256L160,256L160,88L224,88L224,256L240,256L240,88L295.36,88L272,392C271.99,392 271.979,392 271.969,392C241.288,392 216.041,417.247 216.041,447.928C216.041,453.372 216.836,458.786 218.4,464L188.84,464ZM312,448C312,469.943 293.943,488 272,488C250.057,488 232,469.943 232,448C232,426.057 250.057,408 272,408C293.933,408.026 311.974,426.067 312,448ZM311.408,88L320,88C323.097,87.986 325.916,86.163 327.2,83.344L331.288,93.4L310.184,104L311.408,88ZM396.208,300.952L322.168,115.864L337.368,108.272L412.344,292.88L396.208,300.952ZM448.152,310.992C446.85,311.598 445.43,311.912 443.994,311.912C440.089,311.912 436.537,309.592 434.968,306.016L342.824,79.2C346.981,78.286 350.913,76.544 354.384,74.08L453.704,308.2L448.152,310.992Z" style="fill-rule:nonzero;"/>
    </g>
</svg>
